<svg xmlns="http://www.w3.org/2000/svg" xmlns:xlink="http://www.w3.org/1999/xlink" width="80" zoomAndPan="magnify" viewBox="0 0 60 30.000001" height="40" preserveAspectRatio="xMidYMid meet" version="1.0"><defs><g/><clipPath id="5feafca8de"><path d="M 49.503906 1.800781 L 56.035156 1.800781 L 56.035156 8.332031 L 49.503906 8.332031 Z M 49.503906 1.800781 " clip-rule="nonzero"/></clipPath></defs><g fill="#222222" fill-opacity="1"><g transform="translate(2.610996, 22.901781)"><g><path d="M 15.53125 0.34375 C 14.394531 0.34375 13.351562 0.09375 12.40625 -0.40625 C 11.46875 -0.914062 10.722656 -1.617188 10.171875 -2.515625 C 9.617188 -3.421875 9.34375 -4.488281 9.34375 -5.71875 L 9.34375 -14.28125 C 9.34375 -14.570312 9.265625 -14.835938 9.109375 -15.078125 C 8.960938 -15.328125 8.765625 -15.523438 8.515625 -15.671875 C 8.273438 -15.828125 8.007812 -15.90625 7.71875 -15.90625 C 7.414062 -15.90625 7.140625 -15.828125 6.890625 -15.671875 C 6.648438 -15.523438 6.457031 -15.328125 6.3125 -15.078125 C 6.175781 -14.835938 6.109375 -14.570312 6.109375 -14.28125 L 6.109375 0 L 1.515625 0 L 1.515625 -13.9375 C 1.515625 -15.113281 1.78125 -16.148438 2.3125 -17.046875 C 2.84375 -17.953125 3.582031 -18.664062 4.53125 -19.1875 C 5.476562 -19.707031 6.539062 -19.96875 7.71875 -19.96875 C 8.914062 -19.96875 9.976562 -19.707031 10.90625 -19.1875 C 11.84375 -18.664062 12.582031 -17.953125 13.125 -17.046875 C 13.664062 -16.148438 13.9375 -15.113281 13.9375 -13.9375 L 13.9375 -5.390625 C 13.9375 -5.066406 14.007812 -4.78125 14.15625 -4.53125 C 14.3125 -4.289062 14.503906 -4.101562 14.734375 -3.96875 C 14.972656 -3.832031 15.234375 -3.765625 15.515625 -3.765625 C 15.804688 -3.765625 16.078125 -3.832031 16.328125 -3.96875 C 16.585938 -4.101562 16.789062 -4.289062 16.9375 -4.53125 C 17.09375 -4.78125 17.171875 -5.066406 17.171875 -5.390625 L 17.171875 -13.9375 C 17.171875 -15.113281 17.441406 -16.148438 17.984375 -17.046875 C 18.523438 -17.953125 19.265625 -18.664062 20.203125 -19.1875 C 21.148438 -19.707031 22.203125 -19.96875 23.359375 -19.96875 C 24.554688 -19.96875 25.617188 -19.707031 26.546875 -19.1875 C 27.472656 -18.664062 28.207031 -17.953125 28.75 -17.046875 C 29.289062 -16.148438 29.5625 -15.113281 29.5625 -13.9375 L 29.5625 0 L 24.96875 0 L 24.96875 -14.296875 C 24.96875 -14.597656 24.894531 -14.863281 24.75 -15.09375 C 24.613281 -15.332031 24.421875 -15.523438 24.171875 -15.671875 C 23.929688 -15.828125 23.660156 -15.90625 23.359375 -15.90625 C 23.078125 -15.90625 22.8125 -15.828125 22.5625 -15.671875 C 22.3125 -15.523438 22.109375 -15.332031 21.953125 -15.09375 C 21.804688 -14.863281 21.734375 -14.597656 21.734375 -14.296875 L 21.734375 -5.71875 C 21.734375 -4.488281 21.453125 -3.421875 20.890625 -2.515625 C 20.328125 -1.617188 19.578125 -0.914062 18.640625 -0.40625 C 17.710938 0.09375 16.675781 0.34375 15.53125 0.34375 Z M 15.53125 0.34375 "/></g></g></g><g fill="#222222" fill-opacity="1"><g transform="translate(32.495037, 22.901781)"><g><path d="M 5.328125 0 C 4.003906 0 2.929688 -0.398438 2.109375 -1.203125 C 1.285156 -2.003906 0.875 -3.035156 0.875 -4.296875 C 0.875 -4.890625 0.992188 -5.460938 1.234375 -6.015625 C 1.472656 -6.566406 1.875 -7.085938 2.4375 -7.578125 L 10.796875 -15.03125 C 10.835938 -15.070312 10.867188 -15.113281 10.890625 -15.15625 C 10.921875 -15.207031 10.9375 -15.257812 10.9375 -15.3125 C 10.9375 -15.382812 10.910156 -15.453125 10.859375 -15.515625 C 10.816406 -15.585938 10.765625 -15.640625 10.703125 -15.671875 C 10.640625 -15.710938 10.566406 -15.734375 10.484375 -15.734375 L 1.34375 -15.734375 L 1.34375 -19.625 L 11.53125 -19.625 C 12.425781 -19.625 13.203125 -19.441406 13.859375 -19.078125 C 14.523438 -18.710938 15.046875 -18.207031 15.421875 -17.5625 C 15.796875 -16.925781 15.984375 -16.1875 15.984375 -15.34375 C 15.984375 -14.738281 15.863281 -14.160156 15.625 -13.609375 C 15.394531 -13.066406 15.03125 -12.566406 14.53125 -12.109375 L 6.0625 -4.625 C 6.039062 -4.601562 6.015625 -4.570312 5.984375 -4.53125 C 5.960938 -4.5 5.945312 -4.46875 5.9375 -4.4375 C 5.925781 -4.414062 5.921875 -4.375 5.921875 -4.3125 C 5.921875 -4.238281 5.9375 -4.171875 5.96875 -4.109375 C 6.007812 -4.046875 6.066406 -3.992188 6.140625 -3.953125 C 6.210938 -3.921875 6.296875 -3.90625 6.390625 -3.90625 L 16.125 -3.90625 L 16.125 0 Z M 5.328125 0 "/></g></g></g><g clip-path="url(#5feafca8de)"><path fill="#222222" d="M 52.8125 7.925781 C 51.265625 7.925781 50.003906 6.664062 50.003906 5.113281 C 50.003906 3.5625 51.265625 2.300781 52.8125 2.300781 C 54.363281 2.300781 55.625 3.5625 55.625 5.113281 C 55.625 6.664062 54.363281 7.925781 52.8125 7.925781 Z M 55.15625 2.773438 C 54.53125 2.144531 53.699219 1.800781 52.8125 1.800781 C 51.929688 1.800781 51.097656 2.144531 50.472656 2.773438 C 49.847656 3.398438 49.503906 4.230469 49.503906 5.113281 C 49.503906 5.996094 49.847656 6.828125 50.472656 7.453125 C 51.097656 8.082031 51.929688 8.425781 52.8125 8.425781 C 53.699219 8.425781 54.53125 8.082031 55.15625 7.453125 C 55.78125 6.828125 56.125 5.996094 56.125 5.113281 C 56.125 4.230469 55.78125 3.398438 55.15625 2.773438 " fill-opacity="1" fill-rule="nonzero"/></g><path fill="#222222" d="M 50.53125 4.132812 L 50.53125 4.523438 L 51.195312 4.523438 L 51.195312 6.210938 L 51.675781 6.210938 L 51.675781 4.523438 L 52.339844 4.523438 L 52.339844 4.132812 L 50.53125 4.132812 " fill-opacity="1" fill-rule="nonzero"/><path fill="#222222" d="M 54.9375 4.132812 L 54.542969 4.132812 L 53.773438 5.425781 L 52.996094 4.132812 L 52.597656 4.132812 L 52.597656 6.210938 L 53.050781 6.210938 L 53.050781 4.992188 L 53.660156 5.992188 L 53.875 5.992188 L 54.488281 4.964844 L 54.492188 6.210938 L 54.941406 6.210938 L 54.9375 4.132812 " fill-opacity="1" fill-rule="nonzero"/></svg>